<mxfile host="app.diagrams.net" modified="2020-10-24T01:40:20.540Z" agent="5.0 (Macintosh; Intel Mac OS X 10_15_5) AppleWebKit/537.36 (KHTML, like Gecko) Chrome/86.0.4240.111 Safari/537.36" etag="-4VulWvuNMsqGx-4LR1c" version="13.8.1" type="github">
  <diagram name="Page-1" id="c4acf3e9-155e-7222-9cf6-157b1a14988f">
    <mxGraphModel dx="740" dy="490" grid="1" gridSize="10" guides="1" tooltips="1" connect="1" arrows="1" fold="1" page="1" pageScale="1" pageWidth="850" pageHeight="1100" background="#ffffff" math="0" shadow="0">
      <root>
        <mxCell id="0" />
        <mxCell id="1" parent="0" />
        <mxCell id="53CZZgBoNaDwPZmtHsrw-4" value="&lt;span&gt;卡管理系统&lt;/span&gt;" style="shape=umlLifeline;perimeter=lifelinePerimeter;whiteSpace=wrap;html=1;container=1;collapsible=0;recursiveResize=0;outlineConnect=0;" parent="1" vertex="1">
          <mxGeometry x="220" y="190" width="100" height="330" as="geometry" />
        </mxCell>
        <mxCell id="b5Iy8NZqnuBlVS6-48hM-5" value="" style="html=1;points=[];perimeter=orthogonalPerimeter;" parent="53CZZgBoNaDwPZmtHsrw-4" vertex="1">
          <mxGeometry x="45" y="90" width="10" height="80" as="geometry" />
        </mxCell>
        <mxCell id="53CZZgBoNaDwPZmtHsrw-6" value="&lt;span&gt;统计系统&lt;br&gt;&lt;/span&gt;" style="shape=umlLifeline;perimeter=lifelinePerimeter;whiteSpace=wrap;html=1;container=1;collapsible=0;recursiveResize=0;outlineConnect=0;" parent="1" vertex="1">
          <mxGeometry x="570" y="190" width="100" height="330" as="geometry" />
        </mxCell>
        <mxCell id="53CZZgBoNaDwPZmtHsrw-15" value="" style="html=1;points=[];perimeter=orthogonalPerimeter;" parent="53CZZgBoNaDwPZmtHsrw-6" vertex="1">
          <mxGeometry x="45" y="210" width="10" height="80" as="geometry" />
        </mxCell>
        <mxCell id="53CZZgBoNaDwPZmtHsrw-10" value="&lt;span&gt;交易系统&lt;br&gt;&lt;/span&gt;" style="shape=umlLifeline;perimeter=lifelinePerimeter;whiteSpace=wrap;html=1;container=1;collapsible=0;recursiveResize=0;outlineConnect=0;" parent="1" vertex="1">
          <mxGeometry x="400" y="190" width="100" height="330" as="geometry" />
        </mxCell>
        <mxCell id="53CZZgBoNaDwPZmtHsrw-11" value="" style="html=1;points=[];perimeter=orthogonalPerimeter;" parent="53CZZgBoNaDwPZmtHsrw-10" vertex="1">
          <mxGeometry x="45" y="90" width="10" height="80" as="geometry" />
        </mxCell>
        <mxCell id="53CZZgBoNaDwPZmtHsrw-32" value="" style="html=1;points=[];perimeter=orthogonalPerimeter;" parent="53CZZgBoNaDwPZmtHsrw-10" vertex="1">
          <mxGeometry x="45" y="210" width="10" height="80" as="geometry" />
        </mxCell>
        <mxCell id="53CZZgBoNaDwPZmtHsrw-24" value="返回缴费结果" style="html=1;verticalAlign=bottom;endArrow=block;dashed=1;" parent="1" edge="1">
          <mxGeometry width="80" relative="1" as="geometry">
            <mxPoint x="440" y="340" as="sourcePoint" />
            <mxPoint x="275" y="340" as="targetPoint" />
            <Array as="points">
              <mxPoint x="400" y="340" />
            </Array>
          </mxGeometry>
        </mxCell>
        <mxCell id="53CZZgBoNaDwPZmtHsrw-33" value="请求用户交易统计" style="html=1;verticalAlign=bottom;endArrow=none;startArrow=block;startFill=1;endFill=0;" parent="1" edge="1">
          <mxGeometry x="0.0303" width="80" relative="1" as="geometry">
            <mxPoint x="460" y="420" as="sourcePoint" />
            <mxPoint x="615" y="420" as="targetPoint" />
            <mxPoint as="offset" />
          </mxGeometry>
        </mxCell>
        <mxCell id="53CZZgBoNaDwPZmtHsrw-34" value="返回用户交易统计" style="html=1;verticalAlign=bottom;endArrow=block;dashed=1;" parent="1" edge="1">
          <mxGeometry width="80" relative="1" as="geometry">
            <mxPoint x="460" y="460" as="sourcePoint" />
            <mxPoint x="615" y="460" as="targetPoint" />
          </mxGeometry>
        </mxCell>
        <mxCell id="b5Iy8NZqnuBlVS6-48hM-4" value="请求缴费" style="html=1;verticalAlign=bottom;endArrow=block;startArrow=none;startFill=0;endFill=1;" parent="1" edge="1">
          <mxGeometry x="0.0303" width="80" relative="1" as="geometry">
            <mxPoint x="280" y="300" as="sourcePoint" />
            <mxPoint x="435" y="300" as="targetPoint" />
            <mxPoint as="offset" />
          </mxGeometry>
        </mxCell>
      </root>
    </mxGraphModel>
  </diagram>
</mxfile>
